<svg xmlns="http://www.w3.org/2000/svg" version="1.2" overflow="visible" preserveAspectRatio="none" viewBox="0 0 24 24" width="32" height="32"><path d="m1.7 8.65.47 1.12h-.93l.46-1.12zm4.35 6.6v-.56h1.48v-.58H6.06v-.51h1.7l.73.82-.77.82H6.06l-.01.01zm4.33-1.93v2.26l-1-1.15 1-1.11zm2 .62c.01.2-.14.37-.34.38-.03 0-.06 0-.09-.01h-.89v-.71h.87c.18-.04.37.07.41.25.01.03.01.06.01.09h.03zm2.56.29h-.87v-.63h.85c.29 0 .44.1.44.3 0 .2-.15.31-.44.34l.02-.01zm-2.47-5.18c0 .21-.15.32-.45.32h-.84v-.62H12c.29 0 .44.1.44.3h.03zm5.25-.41.46 1.12h-.93l.47-1.12zM7.28 8.16H6.16l-.8 1.92-.89-1.92h-1.1v2.68L2.22 8.16h-1L0 11h.75l.25-.65h1.41l.26.65H4V8.77L5 11h.62l1-2.21V11h.66V8.16zm5.79 5.79a.917.917 0 0 0-.86-.97c-.09-.01-.18 0-.27.02H9.78l-.85.93L8.1 13H5.39v2.82h2.66l.86-.94.83.94h1.31v-.93h1c.11.01.22.01.33 0l.27-.1c.09-.04.17-.1.23-.17.06-.09.1-.2.12-.31.04-.12.06-.24.07-.36zM8.46 10.4v-.57H10v-.57H8.46v-.51H10v-.59H7.78V11H10v-.6H8.46zM24 16.22c-.32.13-.66.2-1 .18h-1.74v-.26c-.27.18-.59.27-.92.25h-5.51v-.9c.01-.05-.02-.11-.07-.12h-.14v1h-1.81v-1.04c-.3.11-.62.15-.94.14h-.21v.93h-2.2l-.54-.61-.57.61H4.77v-3.94h3.64l.52.6.56-.6h2.44c.33-.04.67.04.95.23v-.23h2.18c.32-.02.64.06.91.23v-.23h3.29v.23c.23-.18.52-.26.81-.23h1.83v.23c.25-.16.54-.24.84-.23H24V5.4c.01-.37-.13-.74-.4-1-.26-.27-.62-.42-1-.41H1.38c-.38-.01-.74.14-1 .41-.27.26-.41.63-.4 1v4.07l.84-1.86h1.76l.23.45v-.45h2.06l.45 1 .45-1h6.53c.27-.02.54.06.76.23v-.23h1.79v.23c.36-.17.75-.25 1.15-.23h2.59l.24.46v-.46h1.93l.24.45v-.45h1.87v3.94H21l-.35-.6v.6h-2.38l-.27-.64h-.58l-.26.64H16c-.18-.01-.37-.03-.55-.07-.2-.04-.39-.1-.57-.19v.24h-2.9v-.9c0-.1-.03-.15-.1-.15h-.1v1H6.11v-.43l-.21.49H4.72l-.2-.48v.48H2.25L2 10.91h-.58l-.26.64H0v7.05c-.01.37.13.74.4 1 .26.27.62.42 1 .41h21.22c.38.01.74-.14 1-.41.27-.26.41-.63.4-1v-2.38H24zm-7.9-2.44a.61.61 0 0 0-.3-.6c-.25-.12-.52-.18-.8-.18h-1.6v2.82h.68v-1h.72c.17-.02.34.02.48.11.1.13.14.29.12.45v.47h.68v-.57a.995.995 0 0 0-.08-.48.593.593 0 0 0-.35-.27c.15-.06.27-.16.35-.3.08-.14.12-.29.12-.45h-.02zm-2.88-4.86a.61.61 0 0 0-.3-.6c-.26-.11-.53-.16-.81-.15h-1.6V11h.67v-1h.73c.1-.01.21-.01.31 0 .07.02.13.05.18.09.05.04.08.1.09.17v.73h.68v-.56c.01-.16-.02-.33-.09-.48a.613.613 0 0 0-.36-.27c.15-.06.27-.17.35-.3.09-.14.13-.3.13-.46h.02zm3.94 6.33v-.56h1.54v-.58h-1.55v-.51h1.57V13h-2.24v2.82h2.25v-.56h-1.58l.01-.01zM13.6 8.16V11h.69V8.16h-.69zm7.9 6.79a.783.783 0 0 0-.18-.57.742.742 0 0 0-.44-.22c-.17-.01-.34-.01-.51 0-.15.02-.29.02-.44 0-.1-.02-.18-.1-.18-.21 0-.17.12-.26.37-.26h1.24V13H20c-.25-.01-.49.07-.69.22-.18.15-.28.38-.27.62-.01.21.05.41.18.57.11.13.27.21.44.23.17.01.35.01.52 0 .14 0 .29.01.43.05.11.02.19.11.18.22 0 .17-.12.26-.35.26h-1.31v.6h1.31c.47.11.93-.19 1.04-.66.02-.08.02-.16.02-.24v.08zm2.5-.52a.782.782 0 0 0-.59-.27l-.71-.05c-.2 0-.3-.08-.3-.23 0-.15.12-.24.37-.26H24V13h-1.35c-.25-.01-.49.07-.69.22-.19.15-.29.38-.28.62-.01.18.04.35.13.5.07.12.19.21.32.25.14.04.28.07.42.08h.42c.11-.01.22.02.32.06.08.03.13.11.13.2 0 .17-.11.26-.34.26h-1.3v.6h1.3c.34.06.69-.05.92-.31v-1.05zm-1.72-6.26h-.69v2l-1.19-2h-1v2.67l-1.16-2.67h-1l-1 2.22H16c-.2.02-.39-.06-.52-.21-.1-.18-.15-.39-.14-.6-.01-.12-.01-.23 0-.35.02-.09.06-.17.12-.23l.15-.14a.44.44 0 0 1 .22-.07h.83v-.63H16a1.25 1.25 0 0 0-1.38 1.44c-.11.66.33 1.28.99 1.4.13.02.26.02.39 0h.78l.22-.65h1.4l.27.65H20V8.87L21.32 11h1V8.17h-.04z" fill="#00344E"></path></svg>