<svg xmlns="http://www.w3.org/2000/svg" version="1.2" overflow="visible" preserveAspectRatio="none" viewBox="0 0 24 24" width="32" height="32"><path d="M3.26 10.76c.01-.33-.12-.64-.37-.86A1.26 1.26 0 0 0 2 9.61h-.21v2.29H2c.33.03.66-.07.93-.27.24-.22.38-.54.37-.87h-.04zm18.49-.69c0-.29-.24-.53-.53-.53-.04 0-.08.01-.13.02h-.2v1.05h.2c.29.07.58-.1.65-.39.01-.05.02-.1.02-.15h-.01zM4 10.76c.01.51-.22 1.01-.62 1.33-.35.28-.79.42-1.24.4h-1v-3.5h1c.49-.02.97.15 1.34.48.35.33.54.8.52 1.29zm.31 1.72V8.99H5v3.47h-.73l.04.02zm3.33-1.05c.01.31-.11.61-.33.83-.23.22-.54.33-.86.32-.49 0-.95-.25-1.2-.67l.44-.42c.13.29.42.47.74.46.14 0 .27-.05.37-.14.1-.09.15-.22.15-.35 0-.14-.08-.28-.2-.35-.15-.08-.31-.15-.47-.2-.25-.07-.48-.2-.67-.38a.8.8 0 0 1-.22-.54c0-.27.11-.52.31-.7.21-.2.48-.3.77-.3.37 0 .73.14 1 .39l-.35.47a.669.669 0 0 0-.55-.28.516.516 0 0 0-.36.11c-.09.06-.14.16-.14.27 0 .09.04.18.11.24.12.09.26.16.41.2.29.09.56.24.79.44.15.18.23.41.21.65l.05-.05zm2.89.94c-.26.13-.55.2-.84.2a1.8 1.8 0 0 1-1.33-.58c-.71-.71-.71-1.86 0-2.57.35-.34.82-.53 1.31-.52.29 0 .57.08.83.21V10a1.18 1.18 0 0 0-.84-.4c-.31-.01-.6.12-.81.35-.44.49-.44 1.22 0 1.71.22.23.52.35.84.34.31-.01.6-.15.81-.39v.8l.03-.04zm12.83 6.29c-.01.37-.3.66-.67.67H6.33c1.79-.33 3.54-.74 5.25-1.23s3.16-.95 4.35-1.4 2.34-.92 3.43-1.43 1.92-.91 2.47-1.22c.55-.31 1.05-.6 1.5-.87v5.49l.03-.01zm-9.41-6.55c-.74.74-1.93.74-2.67 0s-.74-1.93 0-2.67c.79-.67 1.98-.57 2.65.22.59.7.59 1.74-.01 2.44l.03.01zm2.13.47h-.39l-1.48-3.59h.74l.93 2.33.93-2.33h.74l-1.5 3.56.03.03zm1.77-3.59h1.92v.62h-1.24v.77h1.2v.61h-1.2v.94h1.24v.58h-1.92V8.99zM21 11.1h-.11v1.38h-.68V8.99h1c.33-.02.65.07.91.27.22.19.34.47.32.76a.9.9 0 0 1-.79 1l1.09 1.46h-.82L21 11.1zm2.61-6.7c-.26-.27-.62-.42-1-.41H1.38c-.38-.01-.74.14-1 .41-.27.26-.41.63-.4 1v13.19c-.01.37.13.74.4 1 .26.27.62.42 1 .41h21.24c.38.01.74-.14 1-.41.27-.26.41-.63.4-1V5.39c0-.38-.16-.73-.43-.99h.02z" fill="#00344E"></path></svg>