<svg xmlns="http://www.w3.org/2000/svg" version="1.2" overflow="visible" preserveAspectRatio="none" viewBox="0 0 24 24" width="32" height="32"><g fill="#00344E"><path id="cc-jcb" d="M20.32,13.06c0-0.17-0.05-0.33-0.16-0.46c-0.1-0.12-0.24-0.21-0.4-0.24h-0.19H18v1.46h1.59h0.19  c0.16-0.03,0.3-0.12,0.4-0.24c0.11-0.13,0.16-0.29,0.16-0.46l0,0L20.32,13.06z M20.13,10.84c0.01-0.33-0.23-0.62-0.55-0.67H18v1.34  h1.6c0.16-0.02,0.3-0.1,0.4-0.22c0.11-0.12,0.16-0.28,0.16-0.44l0,0L20.13,10.84z M7.59,12.55c0,1.51-1.14,2.26-3.41,2.26H3.73  c-0.29,0-0.66-0.03-1.13-0.09c-0.43-0.05-0.85-0.13-1.26-0.24V13.3c0.74,0.38,1.55,0.59,2.38,0.61c0.4,0.02,0.79-0.11,1.09-0.38  c0.27-0.26,0.42-0.62,0.4-1V9.35h2.38v3.21l0,0V12.55z M15,14.47c-0.71,0.18-1.44,0.29-2.17,0.32c-0.76,0.05-1.52,0-2.27-0.15  c-0.52-0.1-1.02-0.32-1.44-0.64c-0.31-0.25-0.57-0.56-0.74-0.92c-0.31-0.7-0.31-1.51,0-2.21c0.18-0.34,0.43-0.64,0.74-0.87  c0.43-0.32,0.93-0.53,1.46-0.62c0.75-0.15,1.51-0.2,2.27-0.15h0.29L14,9.33c0.34,0.05,0.67,0.12,1,0.2v1.17  c-0.64-0.34-1.35-0.54-2.08-0.6c-0.62-0.09-1.25,0.07-1.76,0.43c-0.43,0.36-0.66,0.91-0.62,1.47c-0.04,0.57,0.2,1.12,0.64,1.48  c0.51,0.36,1.14,0.52,1.76,0.43c0.72-0.06,1.42-0.27,2.06-0.62V14.47L15,14.47z M22.64,13.27c0.01,0.39-0.17,0.77-0.49,1  c-0.37,0.27-0.81,0.4-1.26,0.38h-5.1v-5.3h5c0.4,0,0.79,0.13,1.11,0.37c0.28,0.22,0.44,0.56,0.43,0.92  c0.01,0.31-0.11,0.61-0.33,0.83c-0.25,0.25-0.58,0.4-0.93,0.43l0,0c0.41,0.02,0.8,0.16,1.13,0.41c0.29,0.22,0.46,0.56,0.45,0.92l0,0  L22.64,13.27z M23.6,4.4C23.36,4.14,23.02,4,22.66,4H1.34C0.98,4,0.64,4.14,0.4,4.4C0.14,4.64,0,4.98,0,5.34v13.32  c0,0.36,0.14,0.7,0.4,0.94C0.64,19.86,0.98,20,1.34,20h21.32c0.74-0.01,1.33-0.6,1.34-1.34V5.34C24,4.98,23.86,4.64,23.6,4.4z" style="" fill="#00344E"></path></g></svg>