<svg xmlns="http://www.w3.org/2000/svg" version="1.2" overflow="visible" preserveAspectRatio="none" viewBox="0 0 24 24" width="32" height="32"><path d="M7.76 12.1a.591.591 0 0 0-.19-.47.69.69 0 0 0-.48-.17.84.84 0 0 0-.65.27c-.17.17-.27.41-.26.65-.01.17.06.34.18.46.13.12.3.18.48.17.24 0 .48-.09.65-.26.18-.17.28-.4.27-.65zm8.17-1.55a.382.382 0 0 0-.12-.32.495.495 0 0 0-.26-.13H15c-.07-.01-.13.03-.14.1v.01l-.18 1.11H15c.24.02.48-.04.69-.16a.67.67 0 0 0 .23-.59l.01-.02zm3.65 1.55a.591.591 0 0 0-.19-.47.69.69 0 0 0-.48-.17.84.84 0 0 0-.65.27c-.17.17-.27.41-.26.65-.01.17.06.34.19.46.14.12.31.18.49.17a.9.9 0 0 0 .64-.26c.18-.17.27-.4.27-.64l-.01-.01zM5.35 10.32c.03.52-.15 1.02-.51 1.4-.38.35-.89.53-1.41.5h-.52c-.06.01-.11.03-.16.07-.04.04-.07.09-.07.14l-.19 1.14a.2.2 0 0 1-.2.2h-.82c-.04 0-.08-.02-.1-.05a.108.108 0 0 1 0-.11L2 9.36c0-.11.09-.2.2-.2h1.7c.35-.01.7.09 1 .28.28.21.43.54.4.89l.05-.01zm3.22 3.25a.2.2 0 0 1-.22.2h-.73c-.08 0-.14-.06-.14-.14v-.03a.81.81 0 0 1 0-.22c-.14.15-.31.26-.5.33-.19.08-.39.12-.6.12-.37.03-.73-.1-1-.36-.25-.27-.38-.63-.36-1 0-.49.19-.97.53-1.32.33-.36.79-.57 1.28-.56.38-.04.76.12 1 .42 0-.23.06-.34.18-.34h.85c.04 0 .08.02.1.05.02.04.02.07 0 .11l-.39 2.74zm4.65-2.74c.01.02.01.05 0 .07l-2.65 3.83c-.04.06-.11.1-.19.1h-.83c-.07.01-.13-.03-.14-.1v-.04c.25-.44.53-.86.85-1.25l-.26-.71-.41-1.28c-.13-.39-.2-.6-.2-.61a.17.17 0 0 1 0-.1c.03-.01.06-.01.09 0h.82c.11-.01.21.06.23.17l.47 1.51 1.1-1.62c.04-.06.11-.1.19-.1h.8c.03-.01.06-.01.09 0 .01.03.01.07 0 .1l.04.03zm4-.51c.03.52-.15 1.02-.51 1.4-.38.35-.89.53-1.41.5h-.56c-.06.01-.11.03-.16.07-.04.04-.07.09-.07.14l-.19 1.21c-.01.08-.09.14-.17.14h-.85c-.04 0-.08-.02-.1-.05a.108.108 0 0 1 0-.11l.68-4.25c0-.11.09-.2.2-.2h1.69c.35-.01.7.09 1 .28.28.21.43.54.4.89l.05-.02zm3.22 3.25a.2.2 0 0 1-.22.2h-.78c-.08 0-.14-.06-.14-.14v-.24c-.13.15-.3.26-.49.33-.19.08-.4.12-.61.12-.37.03-.73-.1-1-.36-.25-.27-.38-.63-.36-1 0-.49.19-.97.53-1.32.33-.36.79-.57 1.28-.56.38-.05.76.11 1 .42 0-.23.06-.34.18-.34h.79c.04 0 .08.02.1.05.02.04.02.07 0 .11l-.43 2.72.15.01zm1.59 0a.2.2 0 0 1-.2.2h-.75a.17.17 0 0 1-.1 0 .17.17 0 0 1 0-.1l.68-4.33c0-.07.06-.12.13-.11h.78c.06-.01.13.03.14.09v.06l-.68 4.19zM4.09 10.71A.48.48 0 0 0 4 10.2c-.19-.09-.39-.13-.6-.12h-.24c-.06-.02-.13.01-.15.07-.01.02-.01.03-.01.05l-.15 1.11h.34c.21.01.42-.03.62-.11.16-.11.26-.29.27-.48l.01-.01zM23.6 4.4c-.24-.26-.58-.4-.94-.4H1.34c-.36 0-.7.14-.94.4-.26.24-.4.58-.4.94v13.32c0 .36.14.7.4.94.24.26.58.4.94.4h21.32c.74-.01 1.33-.6 1.34-1.34V5.34c0-.36-.14-.7-.4-.94z" fill="#00344E"></path></svg>